<?xml version="1.0" encoding="UTF-8" standalone="no"?><svg xmlns="http://www.w3.org/2000/svg" xmlns:xlink="http://www.w3.org/1999/xlink" fill="#ffa500" height="445" preserveAspectRatio="xMidYMid meet" version="1" viewBox="26.1 27.5 447.8 445.0" width="447.8" zoomAndPan="magnify"><g id="change1_1"><path d="M428.08,55H250v-5h178.08v5Zm-106.17,21.33v-5h-71.92v5h71.92ZM96.25,236.83v235.67h5V236.83h-5Zm-25.17,0v61.33h5v-61.33h-5ZM250,96.5v5h223.92v-5H250Zm-200.25,5H26.08v-5h23.67V50h46.5V27.5h5v22.5h62.08v5h-62.08v16.33h62.08v5h-62.08v20.17h62.08v5h-62.08v48.67h-5v-48.67h-20.17v48.67h-5v-48.67h-16.33v48.67h-5v-48.67Zm46.5-25.17h-20.17v20.17h20.17v-20.17Zm-41.5,20.17h16.33v-25.17h25.17v-16.33H54.75v41.5Zm-5,140.33v214.33h5V236.83h-5Zm51.5-76.5H49.75v66.67h51.5v-66.67Zm139-58.83V50h-66.67v51.5h66.67Z"/></g></svg>